<svg width="258" height="76" viewBox="0 0 258 76" fill="none" xmlns="http://www.w3.org/2000/svg">
<path d="M92.4985 53.3815H87.0807L86.1573 47.7911H79.5712L78.6478 53.3815H73.72L79.1849 22.5914H87.0336L92.4985 53.3815ZM80.2496 43.6194H85.4224L82.8407 28.046L80.259 43.6194H80.2496Z" fill="#F6F1F1"/>
<path d="M110.891 30.204V34.2057C110.891 39.1335 108.252 41.8183 102.891 41.8183H100.357V53.39H94.9953V22.5914H102.901C108.271 22.5914 110.9 25.2762 110.9 30.204H110.891ZM100.357 26.9924V37.4172H102.891C104.597 37.4172 105.529 36.7121 105.529 34.5115V29.8896C105.529 27.6891 104.606 26.9839 102.891 26.9839H100.357V26.9924Z" fill="#F6F1F1"/>
<path d="M129.283 30.204V34.2057C129.283 39.1335 126.644 41.8183 121.283 41.8183H118.749V53.39H113.387V22.5914H121.293C126.663 22.5914 129.292 25.2762 129.292 30.204H129.283ZM118.749 26.9924V37.4172H121.283C122.989 37.4172 123.921 36.7121 123.921 34.5115V29.8896C123.921 27.6891 122.998 26.9839 121.283 26.9839H118.749V26.9924Z" fill="#F6F1F1"/>
<path d="M142.888 41.1131L141.23 43.9253V53.3815H135.869V22.5914H141.23V36.0069L148.259 22.5914H153.62L146.158 36.3127L153.62 53.3815H148.108L142.888 41.1131Z" fill="#F6F1F1"/>
<path d="M173.426 53.3815H168.008L167.085 47.7911H160.498L159.575 53.3815H154.647L160.112 22.5914H167.961L173.426 53.3815ZM161.177 43.6194H166.35L163.768 28.046L161.186 43.6194H161.177Z" fill="#F6F1F1"/>
<path d="M175.913 22.5914H184.402C189.773 22.5914 192.402 25.2762 192.402 30.204V45.7775C192.402 50.7052 189.764 53.39 184.402 53.39H175.913V22.5914ZM181.274 26.9924V48.989H184.299C186.004 48.989 187.031 48.1989 187.031 45.9984V29.9831C187.031 27.7826 186.004 26.9924 184.299 26.9924H181.274Z" fill="#F6F1F1"/>
<path d="M201.183 35.5736H208.552V39.9746H201.183V48.989H210.455V53.39H195.822V22.5914H210.455V26.9924H201.183V35.5736Z" fill="#F6F1F1"/>
<path d="M225.135 44.4521L228.79 22.5914H236.253V53.3815H231.184V31.3L227.481 53.3815H222.412L218.407 31.6059V53.3815H213.724V22.5914H221.187L225.135 44.4521Z" fill="#F6F1F1"/>
<path d="M245.185 43.1776L238.401 22.5914H244.007L248.106 36.6271L252.205 22.5914H257.33L250.546 43.1776V53.3815H245.176V43.1776H245.185Z" fill="#F6F1F1"/>
<path d="M61.377 8.6917L23.594 0.0595952C23.415 0.0171144 23.2359 0.00012207 23.0569 0.00012207C22.2749 0.00012207 21.5305 0.390946 21.1536 1.03665C20.4941 2.16664 21.1913 3.56001 22.5764 3.84888L55.865 10.8242C57.0899 11.0791 57.3631 12.549 56.289 13.1522L54.9133 13.9168C52.3222 15.3697 49.1846 15.803 46.2261 15.1318L11.7032 7.29833C10.1768 6.94998 8.6975 7.99501 8.6975 9.42237V57.7316C8.6975 58.8955 9.31937 59.966 10.2993 60.6372L5.3432 65.701L0.6698 70.4333L5.21129 71.4953L12.6642 73.373L23.0004 75.9728L41.3642 68.1394C43.9836 68.7001 46.2543 69.1759 47.9315 69.4902C50.353 69.932 52.5201 69.7196 54.414 69.1419C59.8411 67.4936 63.3085 62.6763 63.3085 57.5191V10.9262C63.3085 9.86417 62.517 8.93809 61.377 8.6832V8.6917ZM23.0946 73.8403H23.0475V73.8233L7.98142 70.3059L5.24898 69.6687L7.95315 68.5047L8.53733 68.6406L10.7515 69.1334L23.0946 71.9117L25.7988 72.5149L26.2605 72.6253L23.0946 73.8403ZM25.8459 70.6202L23.2548 70.051L13.597 67.9185L7.94373 66.6695L10.5631 65.5055L10.6196 65.4801L16.4331 66.712L24.7906 68.4792L28.5406 69.2778L28.9929 69.3713L25.8459 70.6202ZM31.5652 65.9389L28.5312 67.2303L26.4301 66.8224L19.42 65.4461L10.5254 63.7044L13.173 62.4469H13.2013L22.3974 64.1801L27.9941 65.2337L30.4816 65.6925L30.5287 65.7094L31.2919 65.8539L31.65 65.9219L31.5746 65.9558L31.5652 65.9389ZM31.2071 63.7213L29.6996 63.4665L23.594 62.4299L13.0977 60.6372L15.6982 59.3118L16.4708 59.4393L23.6128 60.5948L31.2919 61.8437L33.883 62.2685L33.9019 62.5064L31.2071 63.7298V63.7213ZM36.1443 59.2524L33.7888 60.3569L32.8843 60.2124L23.6411 58.7511L15.6322 57.4937L18.2139 56.1343L19.6461 56.3467L23.6694 56.9499L34.4955 58.5642L36.3516 58.8361L36.3705 59.1334V59.2779L36.1443 59.2354V59.2524ZM38.0099 54.9873L37.5482 55.4546L36.6908 56.3297L35.9276 57.1113L23.6976 55.1827L18.1103 54.2991L20.7014 52.9397V50.0085L20.7202 25.3697L38.0288 29.0485L38.0099 54.9958V54.9873Z" fill="#F6F1F1"/>
</svg>
