<svg width="705" height="662" viewBox="0 0 705 662" fill="none" xmlns="http://www.w3.org/2000/svg">
<path d="M567.543 157.309H542.594V178.618H567.543V157.309Z" fill="#494949"/>
<path d="M596.65 136H571.701V178.618H596.65V136Z" fill="#494949"/>
<path d="M625.759 105.6H600.809V178.618H625.759V105.6Z" fill="#494949"/>
<path d="M654.866 75.2H629.917V178.618H654.866V75.2Z" fill="#494949"/>
<path d="M683.974 44.8H659.024V178.618H683.974V44.8Z" fill="#494949"/>
<path d="M666.162 16.074C647.117 45.05 602.206 106.284 542.594 141.381" stroke="#494949" stroke-width="8.7988" stroke-miterlimit="10"/>
<path d="M652.875 12.235L676.178 0L675.126 26.299L652.875 12.235Z" fill="#494949"/>
<path d="M534.367 187.354V26.746H530.821V187.354V190.9H534.367H694.976V187.354H534.367Z" fill="#494949"/>
<path d="M550.612 187.486H547.066V196.672H550.612V187.486Z" fill="#494949"/>
<path d="M593.318 187.486H589.773V196.672H593.318V187.486Z" fill="#494949"/>
<path d="M636.024 187.486H632.479V196.672H636.024V187.486Z" fill="#494949"/>
<path d="M678.73 187.486H675.186V196.672H678.73V187.486Z" fill="#494949"/>
<path d="M533.831 42.99H524.646V46.535H533.831V42.99Z" fill="#494949"/>
<path d="M533.831 85.697H524.646V89.242H533.831V85.697Z" fill="#494949"/>
<path d="M533.831 128.402H524.646V131.947H533.831V128.402Z" fill="#494949"/>
<path d="M533.831 171.109H524.646V174.654H533.831V171.109Z" fill="#494949"/>
<path d="M310.973 390.467C310.973 393.68 308.981 396.285 306.525 396.285H289.165C286.709 396.285 284.718 393.68 284.718 390.467C284.718 387.253 286.709 384.649 289.165 384.649H306.525C308.98 384.649 310.973 387.253 310.973 390.467Z" fill="#494949"/>
<path d="M310.973 375.827C310.973 379.041 308.981 381.644 306.525 381.644H289.165C286.709 381.644 284.718 379.04 284.718 375.827C284.718 372.614 286.709 370.009 289.165 370.009H306.525C308.98 370.009 310.973 372.614 310.973 375.827Z" fill="#494949"/>
<path d="M310.973 361.188C310.973 364.402 308.981 367.006 306.525 367.006H289.165C286.709 367.006 284.718 364.402 284.718 361.188C284.718 357.975 286.709 355.37 289.165 355.37H306.525C308.98 355.369 310.973 357.975 310.973 361.188Z" fill="#494949"/>
<path d="M310.973 346.549C310.973 349.762 308.981 352.367 306.525 352.367H289.165C286.709 352.367 284.718 349.762 284.718 346.549C284.718 343.336 286.709 340.731 289.165 340.731H306.525C308.98 340.731 310.973 343.336 310.973 346.549Z" fill="#494949"/>
<path d="M310.973 331.91C310.973 335.123 308.981 337.728 306.525 337.728H289.165C286.709 337.728 284.718 335.123 284.718 331.91C284.718 328.697 286.709 326.092 289.165 326.092H306.525C308.98 326.092 310.973 328.696 310.973 331.91Z" fill="#494949"/>
<path d="M310.973 317.271C310.973 320.484 308.981 323.089 306.525 323.089H289.165C286.709 323.089 284.718 320.484 284.718 317.271C284.718 314.058 286.709 311.453 289.165 311.453H306.525C308.98 311.453 310.973 314.058 310.973 317.271Z" fill="#494949"/>
<path d="M310.973 302.631C310.973 305.844 308.981 308.449 306.525 308.449H289.165C286.709 308.449 284.718 305.844 284.718 302.631C284.718 299.418 286.709 296.813 289.165 296.813H306.525C308.98 296.813 310.973 299.419 310.973 302.631Z" fill="#494949"/>
<path d="M310.973 287.992C310.973 291.205 308.981 293.811 306.525 293.811H289.165C286.709 293.811 284.718 291.206 284.718 287.992C284.718 284.779 286.709 282.174 289.165 282.174H306.525C308.98 282.174 310.973 284.779 310.973 287.992Z" fill="#494949"/>
<path d="M341.216 390.467C341.216 393.68 339.225 396.285 336.769 396.285H319.409C316.953 396.285 314.962 393.68 314.962 390.467C314.962 387.253 316.953 384.649 319.409 384.649H336.769C339.225 384.649 341.216 387.253 341.216 390.467Z" fill="#494949"/>
<path d="M341.216 375.827C341.216 379.041 339.225 381.644 336.769 381.644H319.409C316.953 381.644 314.962 379.04 314.962 375.827C314.962 372.614 316.953 370.009 319.409 370.009H336.769C339.225 370.009 341.216 372.614 341.216 375.827Z" fill="#494949"/>
<path d="M341.216 361.188C341.216 364.402 339.225 367.006 336.769 367.006H319.409C316.953 367.006 314.962 364.402 314.962 361.188C314.962 357.975 316.953 355.37 319.409 355.37H336.769C339.225 355.369 341.216 357.975 341.216 361.188Z" fill="#494949"/>
<path d="M341.216 346.549C341.216 349.762 339.225 352.367 336.769 352.367H319.409C316.953 352.367 314.962 349.762 314.962 346.549C314.962 343.336 316.953 340.731 319.409 340.731H336.769C339.225 340.731 341.216 343.336 341.216 346.549Z" fill="#494949"/>
<path d="M371.46 390.467C371.46 393.68 369.468 396.285 367.012 396.285H349.653C347.198 396.285 345.205 393.68 345.205 390.467C345.205 387.253 347.197 384.649 349.653 384.649H367.012C369.468 384.649 371.46 387.253 371.46 390.467Z" fill="#494949"/>
<path d="M371.46 375.827C371.46 379.041 369.468 381.644 367.012 381.644H349.653C347.198 381.644 345.205 379.04 345.205 375.827C345.205 372.614 347.197 370.009 349.653 370.009H367.012C369.468 370.009 371.46 372.614 371.46 375.827Z" fill="#494949"/>
<path d="M371.46 361.188C371.46 364.402 369.468 367.006 367.012 367.006H349.653C347.198 367.006 345.205 364.402 345.205 361.188C345.205 357.975 347.197 355.37 349.653 355.37H367.012C369.468 355.369 371.46 357.975 371.46 361.188Z" fill="#494949"/>
<path d="M371.46 346.549C371.46 349.762 369.468 352.367 367.012 352.367H349.653C347.198 352.367 345.205 349.762 345.205 346.549C345.205 343.336 347.197 340.731 349.653 340.731H367.012C369.468 340.731 371.46 343.336 371.46 346.549Z" fill="#494949"/>
<path d="M371.46 331.91C371.46 335.123 369.468 337.728 367.012 337.728H349.653C347.198 337.728 345.205 335.123 345.205 331.91C345.205 328.697 347.197 326.092 349.653 326.092H367.012C369.468 326.092 371.46 328.696 371.46 331.91Z" fill="#494949"/>
<path d="M401.703 390.467C401.703 393.68 399.713 396.285 397.256 396.285H379.897C377.441 396.285 375.449 393.68 375.449 390.467C375.449 387.253 377.441 384.649 379.897 384.649H397.256C399.713 384.649 401.703 387.253 401.703 390.467Z" fill="#494949"/>
<path d="M401.703 375.827C401.703 379.041 399.713 381.644 397.256 381.644H379.897C377.441 381.644 375.449 379.04 375.449 375.827C375.449 372.614 377.441 370.009 379.897 370.009H397.256C399.713 370.009 401.703 372.614 401.703 375.827Z" fill="#494949"/>
<path d="M401.703 361.188C401.703 364.402 399.713 367.006 397.256 367.006H379.897C377.441 367.006 375.449 364.402 375.449 361.188C375.449 357.975 377.441 355.37 379.897 355.37H397.256C399.713 355.369 401.703 357.975 401.703 361.188Z" fill="#494949"/>
<path d="M431.947 390.467C431.947 393.68 429.956 396.285 427.5 396.285H410.14C407.684 396.285 405.693 393.68 405.693 390.467C405.693 387.253 407.684 384.649 410.14 384.649H427.5C429.956 384.649 431.947 387.253 431.947 390.467Z" fill="#494949"/>
<path d="M431.947 375.827C431.947 379.041 429.956 381.644 427.5 381.644H410.14C407.684 381.644 405.693 379.04 405.693 375.827C405.693 372.614 407.684 370.009 410.14 370.009H427.5C429.956 370.009 431.947 372.614 431.947 375.827Z" fill="#494949"/>
<path d="M431.947 361.188C431.947 364.402 429.956 367.006 427.5 367.006H410.14C407.684 367.006 405.693 364.402 405.693 361.188C405.693 357.975 407.684 355.37 410.14 355.37H427.5C429.956 355.369 431.947 357.975 431.947 361.188Z" fill="#494949"/>
<path d="M431.947 346.549C431.947 349.762 429.956 352.367 427.5 352.367H410.14C407.684 352.367 405.693 349.762 405.693 346.549C405.693 343.336 407.684 340.731 410.14 340.731H427.5C429.956 340.731 431.947 343.336 431.947 346.549Z" fill="#494949"/>
<path d="M431.947 331.91C431.947 335.123 429.956 337.728 427.5 337.728H410.14C407.684 337.728 405.693 335.123 405.693 331.91C405.693 328.697 407.684 326.092 410.14 326.092H427.5C429.956 326.092 431.947 328.696 431.947 331.91Z" fill="#494949"/>
<path d="M431.947 317.271C431.947 320.484 429.956 323.089 427.5 323.089H410.14C407.684 323.089 405.693 320.484 405.693 317.271C405.693 314.058 407.684 311.453 410.14 311.453H427.5C429.956 311.453 431.947 314.058 431.947 317.271Z" fill="#494949"/>
<path d="M298.913 245.16L328.088 318.76L360.29 295.487L387.643 340.731L414.246 281.824" stroke="#494949" stroke-width="7.1217" stroke-linecap="round" stroke-linejoin="round"/>
<path d="M422.672 289.049L420.557 267.852L403.255 280.28L422.672 289.049Z" fill="#494949"/>
<path d="M277.144 404.006V243.397H273.6V404.006V407.551H277.144H437.753V404.006H277.144Z" fill="#494949"/>
<path d="M293.39 404.138H289.845V413.323H293.39V404.138Z" fill="#494949"/>
<path d="M336.095 404.138H332.551V413.323H336.095V404.138Z" fill="#494949"/>
<path d="M378.802 404.138H375.257V413.323H378.802V404.138Z" fill="#494949"/>
<path d="M421.508 404.138H417.963V413.323H421.508V404.138Z" fill="#494949"/>
<path d="M276.609 259.642H267.424V263.187H276.609V259.642Z" fill="#494949"/>
<path d="M276.609 302.349H267.424V305.893H276.609V302.349Z" fill="#494949"/>
<path d="M276.609 345.053H267.424V348.6H276.609V345.053Z" fill="#494949"/>
<path d="M276.609 387.76H267.424V391.305H276.609V387.76Z" fill="#494949"/>
<path d="M190.732 445.278L167.182 451.53L172.905 457.279L124.973 505.002L104.474 475.536C103.571 474.236 101.997 473.576 100.437 473.847C98.877 474.118 97.6159 475.265 97.2009 476.793L73.0599 565.619L55.0369 533.247C54.4149 532.131 53.3079 531.371 52.0419 531.194C50.7739 531.014 49.5019 531.444 48.5989 532.346L13.3049 567.642C11.7139 569.233 11.7139 571.81 13.3049 573.401C14.8959 574.992 17.4739 574.992 19.0649 573.401L50.5439 541.922L70.8089 578.322C71.5329 579.622 72.9019 580.412 74.3659 580.412C74.5299 580.412 74.6949 580.403 74.8599 580.383C76.5049 580.184 77.8629 579.006 78.2979 577.408L102.772 487.351L121.06 513.639C121.748 514.628 122.838 515.262 124.038 515.371C125.239 515.475 126.424 515.05 127.278 514.2L178.652 463.051L184.376 468.801L190.732 445.278Z" fill="#494949"/>
<path d="M27.24 570.165V619.242H51.802V551.356L49.744 547.66L27.24 570.165Z" fill="#494949"/>
<path d="M75.282 583.847C74.98 583.885 74.672 583.904 74.366 583.904C71.625 583.904 69.094 582.416 67.759 580.02L57.027 560.743V619.243H81.589V578.546C80.715 581.408 78.272 583.483 75.282 583.847Z" fill="#494949"/>
<path d="M86.814 559.381V619.242H111.375V505.831L104.179 495.485L86.814 559.381Z" fill="#494949"/>
<path d="M124.399 518.879C124.177 518.879 123.955 518.867 123.732 518.85C121.49 518.647 119.474 517.475 118.195 515.633L116.602 513.342V619.242H141.163V505.303L129.74 516.674C128.313 518.095 126.416 518.879 124.399 518.879Z" fill="#494949"/>
<path d="M146.388 619.242H170.949V475.647L146.388 500.099V619.242Z" fill="#494949"/>
<path d="M9.721 627.979V467.37H6.177V627.979V631.524H9.721H190.732V627.979H9.721Z" fill="#494949"/>
<path d="M25.966 628.11H22.421V637.294H25.966V628.11Z" fill="#494949"/>
<path d="M68.6711 628.11H65.1271V637.294H68.6711V628.11Z" fill="#494949"/>
<path d="M111.378 628.11H107.833V637.294H111.378V628.11Z" fill="#494949"/>
<path d="M154.084 628.11H150.54V637.294H154.084V628.11Z" fill="#494949"/>
<path d="M9.185 483.615H0V487.161H9.185V483.615Z" fill="#494949"/>
<path d="M9.185 526.322H0V529.865H9.185V526.322Z" fill="#494949"/>
<path d="M9.185 569.027H0V572.572H9.185V569.027Z" fill="#494949"/>
<path d="M9.185 611.733H0V615.278H9.185V611.733Z" fill="#494949"/>
<path d="M534.367 404.006V243.397H530.821V404.006V407.551H534.367H694.976V404.006H534.367Z" fill="#494949"/>
<path d="M550.612 404.138H547.066V413.322H550.612V404.138Z" fill="#494949"/>
<path d="M593.318 404.138H589.773V413.322H593.318V404.138Z" fill="#494949"/>
<path d="M636.024 404.138H632.479V413.322H636.024V404.138Z" fill="#494949"/>
<path d="M678.73 404.138H675.186V413.322H678.73V404.138Z" fill="#494949"/>
<path d="M533.831 259.642H524.646V263.187H533.831V259.642Z" fill="#494949"/>
<path d="M533.831 302.349H524.646V305.893H533.831V302.349Z" fill="#494949"/>
<path d="M533.831 345.053H524.646V348.6H533.831V345.053Z" fill="#494949"/>
<path d="M533.831 387.76H524.646V391.305H533.831V387.76Z" fill="#494949"/>
<path d="M612.898 259.08C619.491 259.08 624.855 264.444 624.855 271.038C624.855 277.631 619.491 282.995 612.898 282.995H547.816V259.08H612.898ZM612.898 256.753H545.489V285.322H612.898C620.787 285.322 627.182 278.927 627.182 271.038C627.183 263.149 620.787 256.753 612.898 256.753Z" fill="#494949"/>
<path d="M637.602 292.081H545.489V320.65H637.602C645.492 320.65 651.887 314.254 651.887 306.365C651.888 298.476 645.492 292.081 637.602 292.081Z" fill="#494949"/>
<path d="M586.176 329.735C592.769 329.735 598.133 335.099 598.133 341.693C598.133 348.287 592.769 353.651 586.176 353.651H547.817V329.735H586.176ZM586.176 327.408H545.49V355.978H586.176C594.065 355.978 600.46 349.582 600.46 341.693C600.46 333.803 594.064 327.408 586.176 327.408Z" fill="#494949"/>
<path d="M664.446 362.735H545.489V391.304H664.446C672.334 391.304 678.73 384.909 678.73 377.021C678.73 369.13 672.334 362.735 664.446 362.735Z" fill="#494949"/>
<path d="M277.144 627.979V467.37H273.6V627.979V631.524H277.144H437.753V627.979H277.144Z" fill="#494949"/>
<path d="M293.39 628.11H289.845V637.294H293.39V628.11Z" fill="#494949"/>
<path d="M336.095 628.11H332.551V637.294H336.095V628.11Z" fill="#494949"/>
<path d="M378.802 628.11H375.257V637.294H378.802V628.11Z" fill="#494949"/>
<path d="M421.508 628.11H417.963V637.294H421.508V628.11Z" fill="#494949"/>
<path d="M276.609 483.615H267.424V487.161H276.609V483.615Z" fill="#494949"/>
<path d="M276.609 526.322H267.424V529.865H276.609V526.322Z" fill="#494949"/>
<path d="M276.609 569.027H267.424V572.572H276.609V569.027Z" fill="#494949"/>
<path d="M276.609 611.733H267.424V615.278H276.609V611.733Z" fill="#494949"/>
<path d="M371.716 589.038L383.674 600.994L371.716 612.951H285.828V589.038H371.716ZM372.68 586.711H283.501V615.278H372.68L386.965 600.994L372.68 586.711Z" fill="#494949"/>
<path d="M336.7 579.951H283.501V551.381H336.7L350.985 565.667L336.7 579.951Z" fill="#494949"/>
<path d="M409.857 518.381L421.814 530.338L409.857 542.298H285.828V518.381H409.857ZM410.821 516.054H283.501V544.625H410.821L425.105 530.338L410.821 516.054Z" fill="#494949"/>
<path d="M362.744 509.297H283.501V480.727H362.744L377.029 495.01L362.744 509.297Z" fill="#494949"/>
<path d="M532.468 627.979V467.37H528.923V627.979V631.524H532.468H693.076V627.979H532.468Z" fill="#494949"/>
<path d="M548.714 628.11H545.167V637.294H548.714V628.11Z" fill="#494949"/>
<path d="M591.419 628.11H587.875V637.294H591.419V628.11Z" fill="#494949"/>
<path d="M634.124 628.11H630.58V637.294H634.124V628.11Z" fill="#494949"/>
<path d="M676.831 628.11H673.286V637.294H676.831V628.11Z" fill="#494949"/>
<path d="M531.931 483.615H522.747V487.161H531.931V483.615Z" fill="#494949"/>
<path d="M531.931 526.322H522.747V529.865H531.931V526.322Z" fill="#494949"/>
<path d="M531.931 569.027H522.747V572.572H531.931V569.027Z" fill="#494949"/>
<path d="M531.931 611.733H522.747V615.278H531.931V611.733Z" fill="#494949"/>
<path d="M665.8 589.722C669.958 589.722 673.34 593.104 673.34 597.26C673.34 601.418 669.958 604.801 665.8 604.801C661.642 604.801 658.259 601.418 658.259 597.26C658.259 593.104 661.642 589.722 665.8 589.722ZM665.8 586.231C659.706 586.231 654.768 591.169 654.768 597.26C654.768 603.354 659.706 608.292 665.8 608.292C671.893 608.292 676.831 603.354 676.831 597.26C676.831 591.169 671.893 586.231 665.8 586.231Z" fill="#494949"/>
<path d="M587.875 580.334C592.033 580.334 595.415 583.716 595.415 587.874C595.415 592.032 592.033 595.414 587.875 595.414C583.717 595.414 580.334 592.032 580.334 587.874C580.334 583.716 583.717 580.334 587.875 580.334ZM587.875 576.843C581.782 576.843 576.843 581.781 576.843 587.874C576.843 593.967 581.782 598.905 587.875 598.905C593.968 598.905 598.906 593.966 598.906 587.874C598.906 581.781 593.968 576.843 587.875 576.843Z" fill="#494949"/>
<path d="M591.419 533.829C595.576 533.829 598.958 537.211 598.958 541.369C598.958 545.527 595.576 548.91 591.419 548.91C587.262 548.91 583.88 545.527 583.88 541.369C583.88 537.211 587.262 533.829 591.419 533.829ZM591.419 530.338C585.327 530.338 580.389 535.277 580.389 541.369C580.389 547.463 585.327 552.401 591.419 552.401C597.511 552.401 602.449 547.462 602.449 541.369C602.449 535.277 597.511 530.338 591.419 530.338Z" fill="#494949"/>
<path d="M648.454 533.829C652.612 533.829 655.995 537.211 655.995 541.369C655.995 545.527 652.612 548.91 648.454 548.91C644.296 548.91 640.913 545.527 640.913 541.369C640.913 537.211 644.296 533.829 648.454 533.829ZM648.454 530.338C642.36 530.338 637.422 535.277 637.422 541.369C637.422 547.463 642.36 552.401 648.454 552.401C654.548 552.401 659.486 547.462 659.486 541.369C659.486 535.277 654.548 530.338 648.454 530.338Z" fill="#494949"/>
<path d="M621.322 500.136C625.478 500.136 628.86 503.519 628.86 507.677C628.86 511.835 625.478 515.217 621.322 515.217C617.164 515.217 613.781 511.835 613.781 507.677C613.781 503.519 617.164 500.136 621.322 500.136ZM621.322 496.645C615.229 496.645 610.29 501.583 610.29 507.677C610.29 513.77 615.23 518.708 621.322 518.708C627.415 518.708 632.351 513.77 632.351 507.677C632.352 501.583 627.415 496.645 621.322 496.645Z" fill="#494949"/>
<path d="M557.973 504.863C562.13 504.863 565.512 508.246 565.512 512.404C565.512 516.562 562.13 519.944 557.973 519.944C553.815 519.944 550.433 516.562 550.433 512.404C550.433 508.246 553.814 504.863 557.973 504.863ZM557.973 501.372C551.88 501.372 546.942 506.31 546.942 512.404C546.942 518.497 551.88 523.435 557.973 523.435C564.065 523.435 569.003 518.497 569.003 512.404C569.003 506.311 564.064 501.372 557.973 501.372Z" fill="#494949"/>
<path d="M557.973 558.127C562.13 558.127 565.512 561.509 565.512 565.665C565.512 569.823 562.13 573.206 557.973 573.206C553.815 573.206 550.433 569.823 550.433 565.665C550.433 561.509 553.814 558.127 557.973 558.127ZM557.973 554.636C551.88 554.636 546.942 559.575 546.942 565.665C546.942 571.758 551.88 576.697 557.973 576.697C564.065 576.697 569.003 571.758 569.003 565.665C569.003 559.574 564.064 554.636 557.973 554.636Z" fill="#494949"/>
<path d="M623.096 561.379C627.252 561.379 630.633 564.761 630.633 568.919C630.633 573.077 627.252 576.46 623.096 576.46C618.938 576.46 615.555 573.077 615.555 568.919C615.555 564.761 618.937 561.379 623.096 561.379ZM623.096 557.888C617.002 557.888 612.064 562.827 612.064 568.919C612.064 575.013 617.002 579.951 623.096 579.951C629.188 579.951 634.124 575.012 634.124 568.919C634.124 562.826 629.187 557.888 623.096 557.888Z" fill="#494949"/>
<path d="M530.698 526.322L548.714 512.404" stroke="#494949" stroke-width="3.4909" stroke-miterlimit="10"/>
<path d="M565.671 518.708L582.586 534.781" stroke="#494949" stroke-width="3.4909" stroke-miterlimit="10"/>
<path d="M597.356 534.781L614.725 513.705" stroke="#494949" stroke-width="3.4909" stroke-miterlimit="10"/>
<path d="M628.104 513.705L641.723 532.645" stroke="#494949" stroke-width="3.4909" stroke-miterlimit="10"/>
<path d="M656.033 534.781L692.261 488.187" stroke="#494949" stroke-width="3.4909" stroke-miterlimit="10"/>
<path d="M695.446 492.599L696.874 482.254L687.201 486.188L695.446 492.599Z" fill="#494949"/>
<path d="M530.698 570.799L548.714 565.667" stroke="#494949" stroke-width="3.4909" stroke-miterlimit="10"/>
<path d="M564.729 570.799L579.282 582.711" stroke="#494949" stroke-width="3.4909" stroke-miterlimit="10"/>
<path d="M595.712 584.12L614.725 572.571" stroke="#494949" stroke-width="3.4909" stroke-miterlimit="10"/>
<path d="M630.58 573.556L656.033 593.272" stroke="#494949" stroke-width="3.4909" stroke-miterlimit="10"/>
<path d="M675.059 592.334L687.141 582.953" stroke="#494949" stroke-width="3.4909" stroke-miterlimit="10"/>
<path d="M689.136 588.016L693.076 578.345L682.731 579.767L689.136 588.016Z" fill="#494949"/>
<path d="M123.068 262.357C137.27 268.305 149.121 278.631 156.961 291.889L104.364 318.033L123.068 262.357ZM120.924 257.776L98.37 324.911L161.792 293.386C153.368 277.375 139.185 264.379 120.924 257.776Z" fill="#494949"/>
<path d="M163.347 296.51L99.925 328.036L167.06 350.589C172.821 332.046 171.023 312.893 163.347 296.51Z" fill="#494949"/>
<path d="M117.615 256.664C99.071 250.903 79.918 252.701 63.536 260.376L95.061 323.799L117.615 256.664Z" fill="#494949"/>
<path d="M58.914 266.761L88.354 325.991L29.125 355.432C22.599 339.513 22.006 321.937 27.511 305.551C33.016 289.166 44.1 275.512 58.914 266.761ZM60.41 261.93C43.92 270.608 30.604 285.381 24.202 304.44C17.799 323.498 19.495 343.314 27.402 360.187L93.034 327.563L60.41 261.93Z" fill="#494949"/>
<path d="M95.5031 330.234L28.9551 363.313C37.6321 379.801 52.4071 393.118 71.4641 399.521C110.217 412.539 152.119 392.143 165.949 353.9L95.5031 330.234Z" fill="#494949"/>
<path d="M376.467 157.358L352.028 167.62V34.447L376.467 24.186V157.358Z" fill="#494949"/>
<path d="M327.59 157.358L352.028 167.62V34.447L327.59 24.186V157.358Z" fill="#494949"/>
<path d="M352.028 13.927L376.467 24.186L352.028 34.447L327.59 24.186L352.028 13.927Z" fill="#494949"/>
<path d="M368.761 170.809V82.989L389.926 91.876V179.696L368.761 170.809Z" fill="#F1F1F1"/>
<path d="M370.398 85.452L388.288 92.964V177.233L370.398 169.721V85.452ZM367.124 80.526V171.898L391.563 182.159V90.788L367.124 80.526Z" fill="#494949"/>
<path d="M368.761 170.809V118.107L389.926 126.994V179.696L368.761 170.809Z" fill="#F1F1F1"/>
<path d="M370.398 120.57L388.288 128.082V177.233L370.398 169.721V120.57ZM367.124 115.644V171.897L391.563 182.158V125.905L367.124 115.644Z" fill="#494949"/>
<path d="M416.001 171.898L391.562 182.159V90.788L416.001 80.526V171.898Z" fill="#494949"/>
<path d="M391.562 70.266L367.124 80.526L391.562 90.788L416.001 80.526L391.562 70.266Z" fill="#494949"/>
<path d="M407.475 185.323V120.005L428.64 128.893V194.209L407.475 185.323Z" fill="#F1F1F1"/>
<path d="M409.112 122.469L427.002 129.981V191.746L409.112 184.235V122.469ZM405.838 117.543V186.412L430.277 196.672V127.805L405.838 117.543Z" fill="#494949"/>
<path d="M407.475 185.323V175.847L428.64 184.733V194.209L407.475 185.323Z" fill="#F1F1F1"/>
<path d="M409.112 178.31L427.002 185.822V191.746L409.112 184.235V178.31ZM405.838 173.384V186.411L430.277 196.671V183.645L405.838 173.384Z" fill="#494949"/>
<path d="M454.715 186.411L430.276 196.671V127.804L454.715 117.543V186.411Z" fill="#494949"/>
<path d="M430.276 107.282L405.838 117.543L430.276 127.804L454.715 117.543L430.276 107.282Z" fill="#494949"/>
<path d="M315.437 105.846L336.602 96.959V170.624L315.437 179.511V105.846Z" fill="#F1F1F1"/>
<path d="M334.964 99.423V169.536L317.074 177.048V106.935L334.964 99.423ZM338.239 94.496L313.8 104.758V181.974L338.239 171.712V94.496Z" fill="#494949"/>
<path d="M315.437 163.326L336.602 154.439V170.624L315.437 179.511V163.326Z" fill="#F1F1F1"/>
<path d="M334.964 156.902V169.536L317.074 177.048V164.414L334.964 156.902ZM338.239 151.976L313.8 162.238V181.974L338.239 171.712V151.976Z" fill="#494949"/>
<path d="M289.361 171.712L313.8 181.974V104.758L289.361 94.496V171.712Z" fill="#494949"/>
<path d="M313.8 84.235L338.239 94.496L313.8 104.758L289.361 94.496L313.8 84.235Z" fill="#494949"/>
<path d="M276.539 64.5901L297.703 55.7031V185.323L276.539 194.209V64.5901Z" fill="#F1F1F1"/>
<path d="M296.065 58.1661V184.235L278.175 191.746V65.677L296.065 58.1661ZM299.34 53.2401L274.902 63.5011V196.671L299.34 186.411V53.2401Z" fill="#494949"/>
<path d="M276.539 64.5901L297.703 55.7031V109.426L276.539 118.312V64.5901Z" fill="#F1F1F1"/>
<path d="M296.065 58.1661V108.339L278.175 115.849V65.678L296.065 58.1661ZM299.34 53.2401L274.902 63.5011V120.774L299.34 110.514V53.2401Z" fill="#494949"/>
<path d="M250.463 186.411L274.901 196.671V63.5011L250.463 53.2401V186.411Z" fill="#494949"/>
<path d="M274.901 42.978L299.34 53.24L274.901 63.501L250.463 53.24L274.901 42.978Z" fill="#494949"/>
<path d="M19.9221 187.354V26.745H16.3771V187.354V190.9H19.9221H180.531V187.354H19.9221Z" fill="#494949"/>
<path d="M36.1671 187.486H32.6221V196.672H36.1671V187.486Z" fill="#494949"/>
<path d="M78.8731 187.486H75.3291V196.672H78.8731V187.486Z" fill="#494949"/>
<path d="M121.58 187.486H118.034V196.672H121.58V187.486Z" fill="#494949"/>
<path d="M164.285 187.486H160.741V196.672H164.285V187.486Z" fill="#494949"/>
<path d="M19.3861 42.99H10.201V46.536H19.3861V42.99Z" fill="#494949"/>
<path d="M19.3861 85.698H10.201V89.242H19.3861V85.698Z" fill="#494949"/>
<path d="M19.3861 128.402H10.201V131.947H19.3861V128.402Z" fill="#494949"/>
<path d="M19.3861 171.109H10.201V174.654H19.3861V171.109Z" fill="#494949"/>
<path d="M164.357 94.477V187.586H135.789V94.477L150.073 83.961L164.357 94.477Z" fill="#494949"/>
<path d="M129.03 102.847V187.586H100.46V102.847L114.746 92.331L129.03 102.847Z" fill="#494949"/>
<path d="M93.7031 78.169V187.586H65.1321V78.169L79.4181 67.652L93.7031 78.169Z" fill="#494949"/>
<path d="M58.3751 101.792V187.586H29.8051V101.792L44.0891 91.275L58.3751 101.792Z" fill="#494949"/>
<path d="M18.2371 69.425L44.0901 83.961L79.4181 52.578L114.745 83.076L150.073 61.833L162.911 72.382" stroke="#494949" stroke-width="6.9818" stroke-miterlimit="10"/>
<path d="M153.919 78.511L174.522 81.926L167.18 62.374L153.919 78.511Z" fill="#494949"/>
<path opacity="0.1" d="M190.732 214.943C190.732 218.363 148.489 221.136 96.38 221.136C44.271 221.136 2.02795 218.363 2.02795 214.943C2.02795 211.523 44.271 208.75 96.38 208.75C148.489 208.75 190.732 211.523 190.732 214.943Z" fill="url(#paint0_radial_203_9)"/>
<path opacity="0.1" d="M447.447 214.943C447.447 218.363 405.204 221.136 353.095 221.136C300.986 221.136 258.742 218.363 258.742 214.943C258.742 211.523 300.985 208.75 353.095 208.75C405.204 208.75 447.447 211.523 447.447 214.943Z" fill="url(#paint1_radial_203_9)"/>
<path opacity="0.1" d="M704.163 214.943C704.163 218.363 661.92 221.136 609.81 221.136C557.701 221.136 515.458 218.363 515.458 214.943C515.458 211.523 557.7 208.75 609.81 208.75C661.92 208.75 704.163 211.523 704.163 214.943Z" fill="url(#paint2_radial_203_9)"/>
<path opacity="0.1" d="M190.732 435.278C190.732 438.699 148.489 441.471 96.38 441.471C44.271 441.471 2.02795 438.699 2.02795 435.278C2.02795 431.858 44.271 429.085 96.38 429.085C148.489 429.085 190.732 431.858 190.732 435.278Z" fill="url(#paint3_radial_203_9)"/>
<path opacity="0.1" d="M447.447 435.278C447.447 438.699 405.204 441.471 353.095 441.471C300.986 441.471 258.742 438.699 258.742 435.278C258.742 431.858 300.985 429.085 353.095 429.085C405.204 429.084 447.447 431.858 447.447 435.278Z" fill="url(#paint4_radial_203_9)"/>
<path opacity="0.1" d="M704.163 435.278C704.163 438.699 661.92 441.471 609.81 441.471C557.701 441.471 515.458 438.699 515.458 435.278C515.458 431.858 557.7 429.085 609.81 429.085C661.92 429.084 704.163 431.858 704.163 435.278Z" fill="url(#paint5_radial_203_9)"/>
<path opacity="0.1" d="M190.732 655.612C190.732 659.033 148.489 661.805 96.38 661.805C44.271 661.805 2.02795 659.032 2.02795 655.612C2.02795 652.192 44.271 649.419 96.38 649.419C148.489 649.419 190.732 652.193 190.732 655.612Z" fill="url(#paint6_radial_203_9)"/>
<path opacity="0.1" d="M447.447 655.612C447.447 659.033 405.204 661.805 353.095 661.805C300.986 661.805 258.742 659.032 258.742 655.612C258.742 652.192 300.985 649.419 353.095 649.419C405.204 649.419 447.447 652.193 447.447 655.612Z" fill="url(#paint7_radial_203_9)"/>
<path opacity="0.1" d="M704.163 655.612C704.163 659.033 661.92 661.805 609.81 661.805C557.701 661.805 515.458 659.032 515.458 655.612C515.458 652.192 557.7 649.419 609.81 649.419C661.92 649.419 704.163 652.193 704.163 655.612Z" fill="url(#paint8_radial_203_9)"/>
<defs>
<radialGradient id="paint0_radial_203_9" cx="0" cy="0" r="1" gradientUnits="userSpaceOnUse" gradientTransform="translate(96.3798 214.951) scale(93.2357 6.48921)">
<stop stop-color="#000100"/>
<stop offset="1" stop-color="#000100" stop-opacity="0"/>
</radialGradient>
<radialGradient id="paint1_radial_203_9" cx="0" cy="0" r="1" gradientUnits="userSpaceOnUse" gradientTransform="translate(353.095 214.951) scale(93.2357 6.48921)">
<stop stop-color="#000100"/>
<stop offset="1" stop-color="#000100" stop-opacity="0"/>
</radialGradient>
<radialGradient id="paint2_radial_203_9" cx="0" cy="0" r="1" gradientUnits="userSpaceOnUse" gradientTransform="translate(609.811 214.951) scale(93.2357 6.48921)">
<stop stop-color="#000100"/>
<stop offset="1" stop-color="#000100" stop-opacity="0"/>
</radialGradient>
<radialGradient id="paint3_radial_203_9" cx="0" cy="0" r="1" gradientUnits="userSpaceOnUse" gradientTransform="translate(96.3798 435.291) scale(93.2357 6.4892)">
<stop stop-color="#000100"/>
<stop offset="1" stop-color="#000100" stop-opacity="0"/>
</radialGradient>
<radialGradient id="paint4_radial_203_9" cx="0" cy="0" r="1" gradientUnits="userSpaceOnUse" gradientTransform="translate(353.095 435.291) scale(93.2357 6.4892)">
<stop stop-color="#000100"/>
<stop offset="1" stop-color="#000100" stop-opacity="0"/>
</radialGradient>
<radialGradient id="paint5_radial_203_9" cx="0" cy="0" r="1" gradientUnits="userSpaceOnUse" gradientTransform="translate(609.811 435.291) scale(93.2357 6.4892)">
<stop stop-color="#000100"/>
<stop offset="1" stop-color="#000100" stop-opacity="0"/>
</radialGradient>
<radialGradient id="paint6_radial_203_9" cx="0" cy="0" r="1" gradientUnits="userSpaceOnUse" gradientTransform="translate(96.3798 655.632) scale(93.2357 6.4892)">
<stop stop-color="#000100"/>
<stop offset="1" stop-color="#000100" stop-opacity="0"/>
</radialGradient>
<radialGradient id="paint7_radial_203_9" cx="0" cy="0" r="1" gradientUnits="userSpaceOnUse" gradientTransform="translate(353.095 655.632) scale(93.2357 6.4892)">
<stop stop-color="#000100"/>
<stop offset="1" stop-color="#000100" stop-opacity="0"/>
</radialGradient>
<radialGradient id="paint8_radial_203_9" cx="0" cy="0" r="1" gradientUnits="userSpaceOnUse" gradientTransform="translate(609.811 655.632) scale(93.2357 6.4892)">
<stop stop-color="#000100"/>
<stop offset="1" stop-color="#000100" stop-opacity="0"/>
</radialGradient>
</defs>
</svg>
