<svg width="255" height="97" viewBox="0 0 255 97" fill="none" xmlns="http://www.w3.org/2000/svg">
<path d="M34.1082 78.9063L15.3857 75.9519L15.9275 42.9242L41.3066 48.6451L34.1082 78.9063Z" fill="#F6F1F1"/>
<path d="M83.4816 66.0294H78.5365L77.6937 60.4109H71.6822L70.8393 66.0294H66.3415L71.3296 35.0851H78.4935L83.4816 66.0294ZM72.3014 56.2184H77.0229L74.6664 40.5669L72.31 56.2184H72.3014Z" fill="#27374D"/>
<path d="M100.269 42.7358V46.7575C100.269 51.71 97.8612 54.4082 92.9677 54.4082H90.6542V66.0379H85.7607V35.0851H92.9763C97.8784 35.0851 100.278 37.7833 100.278 42.7358H100.269ZM90.6542 39.5081V49.9851H92.9677C94.5243 49.9851 95.3757 49.2764 95.3757 47.0649V42.4198C95.3757 40.2083 94.5329 39.4996 92.9677 39.4996H90.6542V39.5081Z" fill="#27374D"/>
<path d="M117.057 42.7358V46.7575C117.057 51.71 114.648 54.4082 109.755 54.4082H107.442V66.0379H102.548V35.0851H109.764C114.666 35.0851 117.065 37.7833 117.065 42.7358H117.057ZM107.442 39.5081V49.9851H109.755C111.312 49.9851 112.163 49.2764 112.163 47.0649V42.4198C112.163 40.2083 111.32 39.4996 109.755 39.4996H107.442V39.5081Z" fill="#27374D"/>
<path d="M129.475 53.6995L127.962 56.5258V66.0294H123.068V35.0851H127.962V48.5677L134.377 35.0851H139.271L132.46 48.8751L139.271 66.0294H134.24L129.475 53.6995Z" fill="#27374D"/>
<path d="M157.348 66.0294H152.403L151.56 60.4109H145.549L144.706 66.0294H140.208L145.196 35.0851H152.36L157.348 66.0294ZM146.168 56.2184H150.89L148.533 40.5669L146.177 56.2184H146.168Z" fill="#27374D"/>
<path d="M159.619 35.0851H167.368C172.27 35.0851 174.669 37.7833 174.669 42.7358V58.3872C174.669 63.3397 172.261 66.0379 167.368 66.0379H159.619V35.0851ZM164.512 39.5081V61.6149H167.273C168.83 61.6149 169.767 60.8208 169.767 58.6092V42.5138C169.767 40.3022 168.83 39.5081 167.273 39.5081H164.512Z" fill="#27374D"/>
<path d="M182.684 48.1322H189.41V52.5553H182.684V61.6149H191.147V66.0379H177.791V35.0851H191.147V39.5081H182.684V48.1322Z" fill="#27374D"/>
<path d="M204.546 57.0552L207.883 35.0851H214.694V66.0294H210.067V43.8373L206.688 66.0294H202.061L198.406 44.1447V66.0294H194.131V35.0851H200.943L204.546 57.0552Z" fill="#27374D"/>
<path d="M222.847 55.7744L216.655 35.0851H221.772L225.513 49.191L229.254 35.0851H233.933L227.741 55.7744V66.0294H222.839V55.7744H222.847Z" fill="#27374D"/>
<path d="M55.4108 29.3734L20.9242 20.6981C20.7608 20.6554 20.5974 20.6383 20.434 20.6383C19.7202 20.6383 19.0407 21.0311 18.6967 21.68C18.0947 22.8157 18.7311 24.216 19.9954 24.5063L50.3797 31.5166C51.4977 31.7728 51.7472 33.25 50.7667 33.8562L49.5111 34.6247C47.1461 36.0848 44.2822 36.5203 41.5818 35.8457L10.0708 27.9731C8.67756 27.623 7.32733 28.6732 7.32733 30.1077V78.6588C7.32733 79.8286 7.89495 80.9045 8.78936 81.5791L4.26568 86.6682L0 91.4242L4.14528 92.4916L10.948 94.3786L20.3824 96.9915L37.1441 89.1188C39.5349 89.6823 41.6076 90.1605 43.1384 90.4764C45.3486 90.9204 47.3267 90.707 49.0553 90.1263C54.009 88.4698 57.1739 83.6284 57.1739 78.4454V31.6191C57.1739 30.5517 56.4514 29.621 55.4108 29.3649V29.3734ZM20.4684 94.8482H20.4254V94.8312L6.67372 91.2961L4.17968 90.6557L6.64792 89.4859L7.18113 89.6225L9.20217 90.1178L20.4684 92.91L22.9366 93.5162L23.358 93.6272L20.4684 94.8482ZM22.9796 91.6121L20.6146 91.04L11.7994 88.8968L6.63932 87.6416L9.03017 86.4718L9.08177 86.4461L14.3881 87.6843L22.0164 89.4603L25.4393 90.263L25.8521 90.3569L22.9796 91.6121ZM28.1999 86.9072L25.4307 88.2051L23.5128 87.7953L17.1143 86.412L8.99577 84.6616L11.4124 83.3978H11.4382L19.832 85.1397L24.9405 86.1985L27.2109 86.6596L27.2539 86.6767L27.9505 86.8218L28.2773 86.8902L28.2085 86.9243L28.1999 86.9072ZM27.8731 84.6786L26.4971 84.4225L20.9242 83.3808L11.3436 81.5791L13.7173 80.247L14.4225 80.3751L20.9414 81.5364L27.9505 82.7916L30.3156 83.2185L30.3328 83.4576L27.8731 84.6872V84.6786ZM32.3796 80.1873L30.2296 81.2973L29.4039 81.1522L20.9672 79.6835L13.6571 78.4198L16.0135 77.0536L17.3207 77.267L20.993 77.8733L30.8746 79.4956L32.5688 79.7689L32.586 80.0677V80.2129L32.3796 80.1702V80.1873ZM34.0824 75.9008L33.661 76.3705L32.8784 77.25L32.1818 78.0355L21.0188 76.0972L15.9189 75.2092L18.2839 73.843V70.8972L18.3011 46.1349L34.0996 49.8322L34.0824 75.9094V75.9008Z" fill="#27374D"/>
<path d="M69.4678 82.6152C66.8804 82.6152 64.9524 80.7453 64.9524 78.2192C64.9524 75.6931 66.8804 73.8232 69.4678 73.8232C70.6992 73.8232 71.8063 74.2195 72.5651 75.0244L72.167 75.433C71.4207 74.7024 70.5126 74.4052 69.4926 74.4052C67.2661 74.4052 65.5868 76.0398 65.5868 78.2192C65.5868 80.3986 67.2661 82.0332 69.4926 82.0332C70.5126 82.0332 71.4207 81.7236 72.167 80.993L72.5651 81.4016C71.8063 82.2065 70.6992 82.6152 69.4678 82.6152Z" fill="black"/>
<path d="M76.7248 82.6028C74.8589 82.6028 73.4782 81.2406 73.4782 79.3213C73.4782 77.4019 74.8589 76.0398 76.7248 76.0398C78.5906 76.0398 79.9713 77.4019 79.9713 79.3213C79.9713 81.2406 78.5906 82.6028 76.7248 82.6028ZM76.7248 82.0455C78.2174 82.0455 79.337 80.9435 79.337 79.3213C79.337 77.6991 78.2174 76.597 76.7248 76.597C75.2321 76.597 74.1126 77.6991 74.1126 79.3213C74.1126 80.9435 75.2321 82.0455 76.7248 82.0455Z" fill="black"/>
<path d="M85.0728 76.0398C86.6526 76.0398 87.7099 76.9685 87.7099 78.7764V82.5532H87.0879V78.826C87.0879 77.3648 86.3043 76.597 84.9857 76.597C83.4557 76.597 82.5228 77.5753 82.5228 79.1108V82.5532H81.9009V76.0893H82.4979V77.4886C82.9333 76.5846 83.8413 76.0398 85.0728 76.0398Z" fill="black"/>
<path d="M95.7807 79.2965C95.7807 79.3461 95.7682 79.408 95.7682 79.4699H90.1831C90.2453 81.0054 91.3772 82.0455 92.9321 82.0455C93.7531 82.0455 94.5119 81.7483 95.0094 81.1416L95.3702 81.5502C94.798 82.2437 93.9024 82.6028 92.9197 82.6028C90.9543 82.6028 89.5736 81.2406 89.5736 79.3213C89.5736 77.4019 90.9046 76.0398 92.6833 76.0398C94.4621 76.0398 95.7807 77.3772 95.7807 79.2965ZM92.6833 76.5846C91.3026 76.5846 90.2951 77.5753 90.1955 78.9869H95.1712C95.0841 77.5877 94.0641 76.5846 92.6833 76.5846Z" fill="black"/>
<path d="M100.28 82.6028C98.3764 82.6028 96.9957 81.2406 96.9957 79.3213C96.9957 77.3895 98.3764 76.0398 100.28 76.0398C101.312 76.0398 102.208 76.4361 102.743 77.2286L102.282 77.5629C101.81 76.9066 101.088 76.597 100.28 76.597C98.7496 76.597 97.6301 77.6867 97.6301 79.3213C97.6301 80.9558 98.7496 82.0455 100.28 82.0455C101.088 82.0455 101.81 81.736 102.282 81.0797L102.743 81.414C102.208 82.1941 101.312 82.6028 100.28 82.6028Z" fill="black"/>
<path d="M107.638 81.7112L107.899 82.1446C107.576 82.4542 107.053 82.6028 106.568 82.6028C105.424 82.6028 104.802 81.9341 104.802 80.8444V76.6218H103.608V76.0893H104.802V74.6777H105.424V76.0893H107.489V76.6218H105.424V80.7825C105.424 81.6121 105.834 82.0703 106.63 82.0703C107.016 82.0703 107.377 81.9465 107.638 81.7112Z" fill="black"/>
<path d="M111.823 76.0398C113.427 76.0398 114.323 76.8571 114.323 78.4545V82.5532H113.726V81.4016C113.316 82.1446 112.519 82.6028 111.387 82.6028C109.932 82.6028 109.049 81.8598 109.049 80.7577C109.049 79.7795 109.671 78.9498 111.475 78.9498H113.701V78.4297C113.701 77.2286 113.042 76.5846 111.773 76.5846C110.877 76.5846 110.069 76.919 109.534 77.4019L109.223 76.9561C109.87 76.3865 110.815 76.0398 111.823 76.0398ZM111.475 82.0951C112.569 82.0951 113.328 81.575 113.701 80.6463V79.4327H111.487C110.144 79.4327 109.671 79.99 109.671 80.7329C109.671 81.575 110.33 82.0951 111.475 82.0951Z" fill="black"/>
<path d="M122.655 82.6028C120.752 82.6028 119.371 81.2406 119.371 79.3213C119.371 77.3895 120.752 76.0398 122.655 76.0398C123.688 76.0398 124.583 76.4361 125.118 77.2286L124.658 77.5629C124.185 76.9066 123.464 76.597 122.655 76.597C121.125 76.597 120.006 77.6867 120.006 79.3213C120.006 80.9558 121.125 82.0455 122.655 82.0455C123.464 82.0455 124.185 81.736 124.658 81.0797L125.118 81.414C124.583 82.1941 123.688 82.6028 122.655 82.6028Z" fill="black"/>
<path d="M129.408 82.6028C127.543 82.6028 126.162 81.2406 126.162 79.3213C126.162 77.4019 127.543 76.0398 129.408 76.0398C131.274 76.0398 132.655 77.4019 132.655 79.3213C132.655 81.2406 131.274 82.6028 129.408 82.6028ZM129.408 82.0455C130.901 82.0455 132.021 80.9435 132.021 79.3213C132.021 77.6991 130.901 76.597 129.408 76.597C127.916 76.597 126.796 77.6991 126.796 79.3213C126.796 80.9435 127.916 82.0455 129.408 82.0455Z" fill="black"/>
<path d="M137.756 76.0398C139.336 76.0398 140.394 76.9685 140.394 78.7764V82.5532H139.772V78.826C139.772 77.3648 138.988 76.597 137.669 76.597C136.139 76.597 135.206 77.5753 135.206 79.1108V82.5532H134.584V76.0893H135.182V77.4886C135.617 76.5846 136.525 76.0398 137.756 76.0398Z" fill="black"/>
<path d="M149.109 81.7112L149.371 82.1446C149.047 82.4542 148.525 82.6028 148.04 82.6028C146.895 82.6028 146.273 81.9341 146.273 80.8444V76.6218H145.079V76.0893H146.273V74.6777H146.895V76.0893H148.96V76.6218H146.895V80.7825C146.895 81.6121 147.306 82.0703 148.102 82.0703C148.487 82.0703 148.848 81.9465 149.109 81.7112Z" fill="black"/>
<path d="M156.168 76.0893H156.79V82.5532H156.193V81.1663C155.77 82.0703 154.887 82.6028 153.742 82.6028C152.088 82.6028 151.03 81.6741 151.03 79.8661V76.0893H151.652V79.8166C151.652 81.2778 152.436 82.0455 153.792 82.0455C155.26 82.0455 156.168 81.0673 156.168 79.5318V76.0893Z" fill="black"/>
<path d="M170.706 76.0398C172.274 76.0398 173.294 76.9685 173.294 78.7764V82.5532H172.672V78.826C172.672 77.3648 171.913 76.597 170.644 76.597C169.176 76.597 168.268 77.5753 168.268 79.1108V82.5532H167.646V78.826C167.646 77.3648 166.887 76.597 165.619 76.597C164.151 76.597 163.243 77.5753 163.243 79.1108V82.5532H162.621V76.0893H163.218V77.4762C163.641 76.5723 164.524 76.0398 165.706 76.0398C166.875 76.0398 167.733 76.5723 168.082 77.6001C168.505 76.6589 169.45 76.0398 170.706 76.0398Z" fill="black"/>
<path d="M181.372 79.2965C181.372 79.3461 181.359 79.408 181.359 79.4699H175.774C175.836 81.0054 176.968 82.0455 178.523 82.0455C179.344 82.0455 180.103 81.7483 180.601 81.1416L180.961 81.5502C180.389 82.2437 179.494 82.6028 178.511 82.6028C176.545 82.6028 175.165 81.2406 175.165 79.3213C175.165 77.4019 176.496 76.0398 178.275 76.0398C180.053 76.0398 181.372 77.3772 181.372 79.2965ZM178.275 76.5846C176.894 76.5846 175.886 77.5753 175.787 78.9869H180.762C180.675 77.5877 179.655 76.5846 178.275 76.5846Z" fill="black"/>
<path d="M186.468 76.0398C188.048 76.0398 189.105 76.9685 189.105 78.7764V82.5532H188.483V78.826C188.483 77.3648 187.699 76.597 186.381 76.597C184.851 76.597 183.918 77.5753 183.918 79.1108V82.5532H183.296V76.0893H183.893V77.4886C184.328 76.5846 185.236 76.0398 186.468 76.0398Z" fill="black"/>
<path d="M194.626 81.7112L194.887 82.1446C194.564 82.4542 194.041 82.6028 193.556 82.6028C192.412 82.6028 191.79 81.9341 191.79 80.8444V76.6218H190.596V76.0893H191.79V74.6777H192.412V76.0893H194.477V76.6218H192.412V80.7825C192.412 81.6121 192.822 82.0703 193.618 82.0703C194.004 82.0703 194.365 81.9465 194.626 81.7112Z" fill="black"/>
<path d="M198.928 82.6028C197.063 82.6028 195.682 81.2406 195.682 79.3213C195.682 77.4019 197.063 76.0398 198.928 76.0398C200.794 76.0398 202.175 77.4019 202.175 79.3213C202.175 81.2406 200.794 82.6028 198.928 82.6028ZM198.928 82.0455C200.421 82.0455 201.541 80.9435 201.541 79.3213C201.541 77.6991 200.421 76.597 198.928 76.597C197.436 76.597 196.316 77.6991 196.316 79.3213C196.316 80.9435 197.436 82.0455 198.928 82.0455Z" fill="black"/>
<path d="M204.702 77.501C205.1 76.5599 205.958 76.0398 207.177 76.0398V76.6466C207.127 76.6466 207.077 76.6342 207.028 76.6342C205.585 76.6342 204.726 77.5877 204.726 79.1851V82.5532H204.105V76.0893H204.702V77.501Z" fill="black"/>
</svg>
