<svg width="151" height="53" viewBox="0 0 151 53" fill="none" xmlns="http://www.w3.org/2000/svg">
<path d="M16.6952 26.8923H11.4553C11.4553 35.2183 11.4553 45.4667 11.4553 45.4667H3.69087C3.69087 45.4667 3.69087 35.3176 3.69087 26.8923H0V20.3275H3.69087V16.0813C3.69087 13.0402 5.14387 8.28821 11.5267 8.28821L17.2803 8.31014V14.6827C17.2803 14.6827 13.784 14.6827 13.1042 14.6827C12.4244 14.6827 11.4579 15.0207 11.4579 16.471V20.3288H17.3737L16.6952 26.8923Z" fill="#F6F1F1"/>
<path d="M79.2645 18.9884L79.2887 20.0153C79.2887 30.5016 71.2676 42.5826 56.5978 42.5826C52.0953 42.5826 47.9044 41.2699 44.3737 39.0187C44.9973 39.0911 45.6329 39.1314 46.2768 39.1314C50.0141 39.1314 53.4517 37.8629 56.1808 35.7366C52.6905 35.6723 49.7468 33.3768 48.7305 30.2278C49.2204 30.3204 49.7144 30.3647 50.2327 30.3647C50.9615 30.3647 51.666 30.2722 52.3341 30.0909C48.6859 29.358 45.9366 26.1566 45.9366 22.3149V22.2142C47.0136 22.8102 48.2405 23.1645 49.5483 23.2089C47.4104 21.7874 46.0013 19.3591 46.0013 16.6086C46.0013 15.1549 46.3941 13.7938 47.0783 12.622C51.01 17.4221 56.8892 20.5793 63.5175 20.9095C63.3798 20.3296 63.3111 19.7215 63.3111 19.1014C63.3111 14.7241 66.8823 11.1722 71.2877 11.1722C73.5795 11.1722 75.6527 12.1346 77.1102 13.677C78.9242 13.3185 80.6329 12.6581 82.1756 11.7521C81.5804 13.6045 80.3171 15.1589 78.6691 16.1414C80.2766 15.9521 81.8193 15.5212 83.2486 14.893C82.1797 16.4796 80.8233 17.877 79.2645 18.9884Z" fill="#F6F1F1"/>
<path fill-rule="evenodd" clip-rule="evenodd" d="M122.161 6.83825C124.323 6.74081 125.014 6.71729 130.519 6.71729C136.024 6.71729 136.715 6.74081 138.877 6.83825C142.171 6.98777 145.065 7.79081 147.388 10.1008C149.71 12.4108 150.518 15.2887 150.668 18.5647C150.766 20.7151 150.79 21.4023 150.79 26.8774C150.79 32.3526 150.766 33.0397 150.668 35.1901C150.518 38.4661 149.71 41.344 147.388 43.654C145.065 45.964 142.171 46.7671 138.877 46.9166C136.715 47.014 136.024 47.0375 130.519 47.0375C125.014 47.0375 124.323 47.014 122.161 46.9166C118.867 46.7671 115.973 45.964 113.651 43.654C111.328 41.344 110.521 38.4661 110.37 35.1901C110.272 33.0397 110.249 32.3526 110.249 26.8774C110.249 21.4023 110.272 20.7151 110.37 18.5647C110.521 15.2887 111.328 12.4108 113.651 10.1008C115.973 7.79081 118.867 6.98777 122.161 6.83825ZM138.708 10.4674C136.572 10.37 135.93 10.3498 130.517 10.3498C125.105 10.3498 124.463 10.37 122.326 10.4674C120.019 10.5716 117.879 11.0319 116.232 12.6699C114.585 14.3079 114.122 16.4365 114.017 18.7314C113.919 20.8566 113.899 21.495 113.899 26.8777C113.899 32.2605 113.919 32.8989 114.017 35.0241C114.122 37.319 114.585 39.4476 116.232 41.0856C117.879 42.7236 120.019 43.1839 122.326 43.2881C124.463 43.3855 125.105 43.4057 130.517 43.4057C135.93 43.4057 136.572 43.3855 138.708 43.2881C141.016 43.1839 143.156 42.7236 144.803 41.0856C146.45 39.4476 146.913 37.319 147.018 35.0241C147.116 32.8989 147.136 32.2605 147.136 26.8777C147.136 21.495 147.116 20.8566 147.018 18.7314C146.913 16.4365 146.45 14.3079 144.803 12.6699C143.156 11.0319 141.016 10.5716 138.708 10.4674ZM120.107 26.8762C120.107 21.1592 124.767 16.524 130.516 16.524C136.264 16.524 140.925 21.1592 140.925 26.8762C140.925 32.5933 136.264 37.2285 130.516 37.2285C124.767 37.2285 120.107 32.5933 120.107 26.8762ZM123.757 26.8766C123.757 30.5878 126.782 33.5966 130.514 33.5966C134.245 33.5966 137.271 30.5878 137.271 26.8766C137.271 23.1655 134.245 20.1566 130.514 20.1566C126.782 20.1566 123.757 23.1655 123.757 26.8766ZM143.77 16.1164C143.77 17.4525 142.681 18.5356 141.337 18.5356C139.994 18.5356 138.905 17.4525 138.905 16.1164C138.905 14.7803 139.994 13.6972 141.337 13.6972C142.681 13.6972 143.77 14.7803 143.77 16.1164Z" fill="#F6F1F1"/>
</svg>
